<svg width="63" height="63" viewBox="0 0 63 63" fill="none" xmlns="http://www.w3.org/2000/svg">
<path fill-rule="evenodd" clip-rule="evenodd" d="M8.02644 19.5058L5.60336 18.2639C2.49118 24.3617 1.63038 31.3621 3.17256 38.0322C4.71475 44.7023 8.56101 50.6143 14.034 54.7272C19.5069 58.84 26.2556 60.8898 33.0914 60.5156C39.9273 60.1414 46.4119 57.3672 51.4032 52.6816C56.3945 47.9959 59.5725 41.6994 60.3774 34.9008C61.1823 28.1022 59.5625 21.2376 55.8034 15.516C52.0442 9.79435 46.3867 5.58261 39.8272 3.6225C33.2677 1.66238 26.227 2.07962 19.945 4.80072L21.0202 7.31466C26.7139 4.84903 33.0951 4.47163 39.0398 6.24893C44.9844 8.02624 50.1113 11.8442 53.5173 17.0305C56.9233 22.2167 58.39 28.4385 57.6591 34.5999C56.9282 40.7614 54.0465 46.4673 49.5216 50.7127C44.9967 54.9581 39.1189 57.4706 32.9233 57.8077C26.7278 58.1448 20.6121 56.2849 15.6533 52.5556C10.6944 48.8262 7.21064 43.4667 5.81547 37.4209C4.4203 31.3751 5.20326 25.0309 8.02644 19.5058V19.5058Z" fill="url(#paint0_linear_2_16)"/>
<path d="M14.3416 13.9781L12.4183 19.1574L9.48027 14.493L3.96777 14.281L7.49638 10.0406L5.9971 4.725L11.131 6.76947L15.7197 3.69519L15.3562 9.20769L19.6875 12.6151L14.3416 13.9781Z" fill="#47A8E5"/>
<defs>
<linearGradient id="paint0_linear_2_16" x1="2.42306" y1="2.42308" x2="60.5769" y2="60.5769" gradientUnits="userSpaceOnUse">
<stop stop-color="#2A6BAC"/>
<stop offset="1" stop-color="#143453"/>
</linearGradient>
</defs>
</svg>
